<mxfile host="app.diagrams.net" agent="Mozilla/5.0 (Windows NT 10.0; Win64; x64) AppleWebKit/537.36 (KHTML, like Gecko) Chrome/132.0.0.0 Safari/537.36 Edg/132.0.0.0" version="26.0.2">
  <diagram name="Страница — 1" id="IeNJgb-7kAVta1X1Qgv2">
    <mxGraphModel grid="1" page="1" gridSize="10" guides="1" tooltips="1" connect="1" arrows="1" fold="1" pageScale="1" pageWidth="827" pageHeight="1169" math="0" shadow="0">
      <root>
        <mxCell id="0" />
        <mxCell id="1" parent="0" />
        <mxCell id="OPfNs2YMukVocSEaLeKv-5" style="edgeStyle=orthogonalEdgeStyle;rounded=0;orthogonalLoop=1;jettySize=auto;html=1;exitX=1;exitY=0.5;exitDx=0;exitDy=0;" edge="1" parent="1" source="OPfNs2YMukVocSEaLeKv-1" target="OPfNs2YMukVocSEaLeKv-17">
          <mxGeometry relative="1" as="geometry" />
        </mxCell>
        <mxCell id="OPfNs2YMukVocSEaLeKv-1" value="Буфер аудиоданных" style="rounded=0;whiteSpace=wrap;html=1;" vertex="1" parent="1">
          <mxGeometry x="310" y="200" width="120" height="60" as="geometry" />
        </mxCell>
        <mxCell id="OPfNs2YMukVocSEaLeKv-4" value="ШИМ таймера динамика" style="rounded=0;whiteSpace=wrap;html=1;" vertex="1" parent="1">
          <mxGeometry x="500" y="200" width="120" height="60" as="geometry" />
        </mxCell>
        <mxCell id="OPfNs2YMukVocSEaLeKv-9" value="Программная реализация ШИМ&amp;nbsp; для управления сервоприводом управления наклона головы" style="rounded=0;whiteSpace=wrap;html=1;" vertex="1" parent="1">
          <mxGeometry x="328" y="280" width="120" height="90" as="geometry" />
        </mxCell>
        <mxCell id="OPfNs2YMukVocSEaLeKv-18" style="edgeStyle=orthogonalEdgeStyle;rounded=0;orthogonalLoop=1;jettySize=auto;html=1;exitX=1;exitY=0.5;exitDx=0;exitDy=0;entryX=0.5;entryY=0;entryDx=0;entryDy=0;" edge="1" parent="1" source="OPfNs2YMukVocSEaLeKv-17" target="OPfNs2YMukVocSEaLeKv-4">
          <mxGeometry relative="1" as="geometry" />
        </mxCell>
        <mxCell id="OPfNs2YMukVocSEaLeKv-17" value="Таймер аудиочастоты (11кГц)" style="rounded=0;whiteSpace=wrap;html=1;" vertex="1" parent="1">
          <mxGeometry x="410" y="130" width="120" height="60" as="geometry" />
        </mxCell>
        <mxCell id="9l6Mn39Z-duhFcrJdtTA-2" style="edgeStyle=orthogonalEdgeStyle;rounded=0;orthogonalLoop=1;jettySize=auto;html=1;exitX=0.25;exitY=1;exitDx=0;exitDy=0;entryX=0.75;entryY=1;entryDx=0;entryDy=0;" edge="1" parent="1" source="9l6Mn39Z-duhFcrJdtTA-1" target="OPfNs2YMukVocSEaLeKv-9">
          <mxGeometry relative="1" as="geometry" />
        </mxCell>
        <mxCell id="9l6Mn39Z-duhFcrJdtTA-1" value="АЦП потенциометра1" style="rounded=0;whiteSpace=wrap;html=1;" vertex="1" parent="1">
          <mxGeometry x="492" y="295" width="120" height="60" as="geometry" />
        </mxCell>
      </root>
    </mxGraphModel>
  </diagram>
</mxfile>
